<svg xmlns="http://www.w3.org/2000/svg" viewBox="0 0 390 326" width="390" height="326" role="img" aria-labelledby="t d"><title id="t">Languages and declared stack</title><desc id="d">Python 47.7%, Rust 29.1%, Shell 23.1%. Declared stack: Security &amp; CTFs: Python; macOS &amp; Shell: Shell; Rust CLI tools: Rust.</desc><defs><linearGradient id="sg0" x1="0" y1="0" x2="0" y2="1"><stop offset="0" stop-color="#9fbcff" stop-opacity=".42"/><stop offset="1" stop-color="#9fbcff" stop-opacity="0"/></linearGradient><linearGradient id="sg1" x1="0" y1="0" x2="0" y2="1"><stop offset="0" stop-color="#c9d8ff" stop-opacity=".42"/><stop offset="1" stop-color="#c9d8ff" stop-opacity="0"/></linearGradient><linearGradient id="sg2" x1="0" y1="0" x2="0" y2="1"><stop offset="0" stop-color="#f4f2ec" stop-opacity=".42"/><stop offset="1" stop-color="#f4f2ec" stop-opacity="0"/></linearGradient><path id="i4c" d="M10 0l3-16 83-40 96-548-69-40 3-16h247l-3 16-92 40-97 554h231l93-172h16l-39 222z"/><path id="i61" d="M136 10q-40 0-64-34-25-35-25-104 0-62 19-121 20-59 54-107 35-48 80-76 45-28 96-28 25 0 48 6 23 6 41 16l35-22h25l-61 341q-5 30-2 43 4 13 17 13 17 0 37-19 20-18 38-56l13 6q-29 75-63 108-33 34-68 34-35 0-48-27-13-27-5-72l5-26h-4q-37 58-80 91-42 34-88 34zM123-167q0 56 13 83 12 28 47 28 24 0 48-16 24-16 46-41 22-25 39-51l37-206q-19-25-39-38-19-13-47-13-43 0-75 37-33 37-51 95-18 58-18 122z"/><path id="i6e" d="M43 0l69-389-78-35v-6l142-30h3v105h4q36-39 63-62 26-23 52-33 25-10 57-10 49 0 75 40 27 40 15 108l-35 193q-5 30-2 43 4 13 17 13 17 0 37-19 20-18 38-56l13 6q-29 75-63 108-33 34-68 34-35 0-48-27-13-27-5-72l39-220q5-35-8-63-14-27-58-27-22 0-46 15-23 15-45 36-22 20-39 39l-53 309z"/><path id="i67" d="M208-153q-30 0-55-9-23 11-33 28-9 16-9 34 0 20 20 31 20 11 51 18 32 7 68 15 36 7 68 20 31 12 51 34 20 21 20 57 0 40-25 78-25 38-74 63-50 24-126 24-89 0-132-30-42-29-42-72 0-31 10-50 9-18 31-40l80-45v-2q-31-9-51-25-21-16-21-47 0-21 5-35 5-14 19-30l67-34v-3q-27-16-42-43-16-28-16-63 0-42 24-84 25-42 68-69 43-28 97-28 27 0 56 10h151v44h-89l-4 3q21 28 21 74 0 28-13 59-13 30-38 57-25 27-59 43-35 17-78 17zM226-192q28 0 50-21 21-21 34-51 12-31 12-61 0-44-20-70-21-26-56-26-30 0-52 19-23 20-35 50-12 30-12 62 0 43 21 70 22 28 58 28zM65 127q0 37 32 59 32 23 84 23 69 0 102-31 33-31 33-74 0-28-16-44-17-17-44-26-27-9-58-14-32-6-62-13-46 32-58 61-13 30-13 59z"/><path id="i75" d="M159 10q-37 0-61-29-23-29-23-79 0-10 1-20 2-10 3-20l45-251-78-35v-6l160-30h4l-52 306q-4 25-4 36 0 28 14 48 13 19 44 19 21 0 42-15 22-15 42-36 20-21 36-39l43-248-69-35v-6l152-30h4l-60 341q-5 30-2 43 4 13 19 13 17 0 37-19 20-18 38-56l13 6q-29 75-63 108-33 34-68 34-35 0-48-27-12-27-5-72l1-6h-3q-34 38-59 61-25 23-48 34-24 10-55 10z"/><path id="i65" d="M199 10q-76 0-113-42-36-43-36-116 0-59 20-114 19-56 54-100 34-45 80-72 45-26 98-26 50 0 76 23 25 23 25 54 0 34-24 63-24 28-83 52-60 23-168 41-2 20-2 42 0 61 26 97 26 36 82 36 33 0 65-18 32-19 66-59h2l10 8q-34 59-81 95-48 36-97 36zM275-425q-54 0-91 45-38 44-51 117 75-13 117-28 42-15 59-35 17-21 17-52 0-20-13-34-13-13-38-13z"/><path id="i73" d="M302-127q0 32-22 63-22 32-62 53-41 21-97 21-24 0-52-10-28-9-47-25-20-16-20-35 0-8 4-14 3-5 9-10l23-22 79 80q8 1 14 1 50 0 78-23 28-23 28-55 0-26-15-48-16-22-69-53-53-32-71-60-18-27-18-68 0-30 22-60 23-29 62-48 38-20 87-20 50 0 77 18 28 17 28 40 0 9-7 16l-23 25-76-66q-5 0-10 0-45 0-69 21-24 20-24 52 0 15 5 28 6 14 24 29 18 15 53 37 53 32 71 61 18 29 18 72z"/><path id="i63" d="M380-140q-43 76-87 113-44 37-95 37-72 0-110-44-38-43-38-126 0-53 21-106 21-52 57-96 36-45 82-72 46-26 97-26 32 0 53 14 22 13 34 31 11 18 11 31 0 17-14 25l-36 23-56-86q-31 0-62 18-31 19-57 50-25 32-40 72-15 40-15 83 0 70 25 109 24 38 79 38 17 0 38-6 21-7 46-28 25-20 55-62h2z"/><path id="i72" d="M43 0l69-389-78-35v-6l141-30h3v123h4q30-51 50-77 21-27 38-36 16-10 34-10 20 0 34 10 14 11 14 23 0 9-4 18l-18 46-67-24q-19 9-41 35-21 27-56 84l-47 268z"/><path id="i6f" d="M220 10q-87 0-128-54-42-55-42-140 0-47 17-96 17-48 49-89 32-41 76-66 44-25 97-25 87 0 129 54 41 54 41 140 0 45-17 94-16 48-48 90-31 41-75 66-44 26-99 26zM231-28q44 0 75-34 32-33 49-88 17-56 17-122 0-74-20-112-19-39-72-39-42 0-74 31-33 30-51 84-18 54-18 127 0 74 20 113 20 40 74 40z"/><path id="i70" d="M-27 230v-16l55-28 102-575-78-35v-6l142-30h3v125h4q38-58 80-91 42-34 88-34 40 0 65 35 24 35 24 103 0 62-20 121-19 59-54 107-34 48-79 76-45 28-96 28-19 0-37-4-18-3-33-9l-31 188 80 29v16zM322-394q-24 0-48 16-24 16-46 41-22 25-40 52l-35 203q19 26 37 40 19 13 48 13 43 0 76-37 32-37 50-95 18-58 18-122 0-56-12-83-13-28-48-28z"/><path id="i62" d="M194 10q-26 0-50-6-24-7-42-18l-51 24h-6l120-690-77-34v-6l163-30h3l-72 415h5q21-31 46-59 25-29 55-48 30-18 66-18 40 0 64 34 25 35 25 104 0 62-19 121-20 59-54 107-35 48-80 76-45 28-96 28zM307-394q-28 0-64 30-36 29-70 80l-35 202q22 29 41 41 19 12 44 12 39 0 72-33 33-34 53-92 19-57 19-129 0-61-13-86-14-25-47-25z"/><path id="i6c" d="M101 10q-35 0-47-27-13-27-6-72l103-591-87-34v-6l173-30h3l-111 631q-5 30-1 43 3 13 16 13 17 0 37-19 20-18 38-56l13 6q-29 75-62 108-34 34-69 34z"/><path id="i69" d="M196-585q-23 0-40-17-17-17-17-40 0-23 17-40 17-17 40-17 23 0 40 17 17 17 17 40 0 23-17 40-17 17-40 17zM125 10q-35 0-48-27-13-27-5-72l53-301-87-34v-6l173-30h3l-61 341q-5 30-1 43 3 13 16 13 17 0 37-19 20-18 38-56l13 6q-29 75-62 108-34 34-69 34z"/><path id="i74" d="M131 10q-33 0-50-22-17-21-17-58 0-8 2-18 1-10 2-20l53-298h-74v-6l85-38 86-110h6l-19 110h125v44h-133l-45 254q-2 13-3 24-1 10-1 18 0 24 8 34 8 10 21 10 23 0 49-26 27-26 49-75l13 6q-33 94-74 133-40 38-83 38z"/><path id="i2c" d="M-43 189l107-269h100l-2 10-189 259z"/><path id="i79" d="M325-229q23-39 39-71 15-33 17-67l-56-47 27-33q11-13 24-13 22 0 42 24 19 25 19 55 0 24-17 57-16 34-55 96l-231 370q-31 49-64 74-34 24-61 24-43 0-43-44 0-11 4-22 4-10 10-19l83 11q14-8 25-18 10-11 22-29 12-18 31-49l47-76-86-386-85-32v-6l148-30h3l76 355h5z"/><path id="i66" d="M50-406v-44h85l3-23q4-28 19-65 15-36 39-73 24-37 56-69 32-31 70-50 37-20 79-20 27 0 43 10 15 10 15 21 0 6-5 18l-17 39-103-44q-47 28-76 84-29 57-43 150l-3 22h113v44h-120l-54 372q-7 48-31 96-24 49-57 89-33 40-69 65-36 24-66 24-22 0-38-10-17-11-17-25 0-5 6-17l16-34 81 36q37-25 62-77 24-52 36-137l54-382z"/><path id="i64" d="M139 10q-40 0-65-34-24-35-24-104 0-62 20-121 19-59 54-107 34-48 79-76 45-28 96-28 36 0 69 13l41-233-87-34v-6l173-30h3l-111 631q-5 30-1 43 3 13 16 13 17 0 37-19 20-18 38-56l13 6q-29 75-62 108-34 34-69 34-35 0-48-27-13-27-5-72l5-26h-4q-84 125-168 125zM126-167q0 63 14 87 15 24 46 24 29 0 65-30 36-29 68-78l36-205q-21-28-41-40-19-12-44-12-40 0-72 35-33 35-52 92-20 58-20 127z"/><path id="r50" d="M65 0v-16l80-40v-548l-80-40v-16h260q118 0 189 43 72 43 72 136 0 54-38 97-37 43-101 68-64 25-146 25h-66v235l90 40v16zM313-605h-78v259h85q79 0 124-36 45-35 45-91 0-70-45-101-46-31-131-31z"/><path id="r79" d="M-23-450h239v16l-82 31v5l133 290h3l112-284v-6l-75-36v-16h196v16l-75 34-222 539q-22 53-49 77-27 24-70 24-25 0-33-7-7-7-7-36v-39h97q13-18 24-38 12-21 26-51 13-30 34-76l-184-396-67-31z"/><path id="r74" d="M208 10q-44 0-76-26-32-26-32-73v-314h-82v-6l85-41 71-110h6v110h132v47h-132v297q0 25 23 38 23 12 54 12 19 0 35-2 17-2 29-5h3v10q-10 22-40 43-29 20-76 20z"/><path id="r68" d="M48 0v-16l63-32v-588l-60-52v-7l134-55h6v364h4q38-38 73-56 36-18 79-18 59 0 97 30 37 29 37 87v295l63 32v16h-214v-16l71-29v-251q0-44-27-67-28-23-72-23-27 0-60 9-32 9-51 26v306l71 29v16z"/><path id="r6f" d="M270 10q-65 0-115-31-50-31-77-84-28-53-28-120 0-67 28-120 27-53 77-84 50-31 115-31 66 0 116 31 49 31 76 84 28 53 28 120 0 67-28 120-27 53-76 84-50 31-116 31zM284-33q41 0 66-25 26-25 38-64 12-40 12-83 0-53-14-102-15-49-46-80-31-31-82-31-41 0-67 25-26 25-39 64-12 39-12 83 0 53 15 102 15 49 47 80 31 31 82 31z"/><path id="r6e" d="M48 0v-16l63-32v-298l-60-52v-7l124-55h6l9 74h5q38-38 73-56 36-18 79-18 59 0 97 30 37 29 37 87v295l63 32v16h-214v-16l71-32v-248q0-44-27-67-28-23-72-23-27 0-60 9-32 9-51 26v303l71 32v16z"/><path id="r34" d="M193 0v-16l90-40v-137h-275v-20l340-447h20v400h119v67h-119v137l80 40v16zM103-260h180v-245z"/><path id="r37" d="M83 0q21-50 39-91 19-41 40-84 21-43 50-97 29-55 70-130 42-75 103-181h-333v-77h410v20q-35 69-75 148-40 79-78 163-38 84-69 167-30 84-45 162z"/><path id="r2e" d="M125 5q-25 0-43-18-18-18-18-43 0-25 18-43 18-18 43-18 25 0 43 18 18 18 18 43 0 25-18 43-18 18-43 18z"/><path id="r25" d="M155-345q-67 0-105-56-38-56-38-147 0-57 18-103 19-46 52-73 32-26 73-26 67 0 105 56 37 55 37 147 0 56-19 102-18 46-50 73-32 27-73 27zM161-371q19 0 31-23 13-23 19-60 6-37 6-78 0-53-7-96-7-44-22-70-16-26-40-26-18 0-30 23-13 23-20 59-6 37-6 79 0 52 8 96 7 44 22 70 16 26 39 26zM124-13l465-737 36 23-465 737zM596 10q-67 0-105-56-38-56-38-147 0-57 19-103 18-46 50-72 33-27 74-27 67 0 104 55 38 56 38 148 0 56-18 102-19 46-51 73-32 27-73 27zM602-16q19 0 32-23 12-23 18-60 6-37 6-78 0-53-7-97-7-43-23-69-15-26-39-26-18 0-31 23-12 23-18 60-7 36-7 78 0 52 7 96 8 44 24 70 15 26 38 26z"/><path id="r52" d="M65 0v-16l80-40v-548l-80-40v-16h258q105 0 165 44 61 43 61 119 0 56-38 101-38 44-101 67l190 277 66 36v16h-144l-194-303h-93v246l75 41v16zM300-605h-65v247h71q63 0 104-36 42-35 42-90 0-56-40-88-41-33-112-33z"/><path id="r75" d="M225 10q-58 0-96-30-38-29-38-87v-296l-63-31v-16h143v296q0 44 28 67 28 23 71 23 27 0 60-9 32-9 51-26v-304l-71-31v-16h151v405l71 29v16h-151v-63h-5q-38 38-74 55-35 18-77 18z"/><path id="r73" d="M213 10q-47 0-81-8-34-8-69-26v-112h14l32 55q31 55 101 55 41 0 63-19 22-19 22-52 0-28-14-45-14-16-39-28-26-13-61-29-51-23-79-51-27-27-27-77 0-37 21-67 21-30 54-48 32-18 67-18 37 0 69 9 31 9 62 25v109h-14l-33-53q-32-51-80-51-34 0-55 17-20 17-20 47 0 34 24 51 25 18 72 40 29 14 57 28 28 14 47 40 18 25 18 72 0 44-24 74-24 31-59 46-35 16-68 16z"/><path id="r32" d="M52 0v-25q87-100 143-167 56-67 87-112 32-44 46-75 15-31 18-57 4-25 4-55 0-61-30-95-31-35-81-35-32 0-59 11-27 10-48 28v101h-64q-16 0-22-7-7-8-7-27 0-28 19-55 19-28 51-50 32-23 71-36 40-14 81-14 55 0 97 24 42 23 66 63 23 40 23 90 0 33-8 61-8 27-27 56-18 29-50 68-33 38-82 92-50 55-119 134h235l50-97h16l-10 179z"/><path id="r39" d="M81 10v-29q122-39 195-127 74-88 89-208-27 37-67 60-40 22-92 22-53 0-93-25-40-25-61-69-22-43-22-98 0-51 24-98 24-48 72-78 48-30 120-30 66 0 115 32 49 32 76 87 27 55 27 125 0 105-46 192-47 86-133 148-86 63-204 96zM122-486q0 147 123 147 39 0 71-18 33-18 53-49 0-5 0-11 0-75-17-121-18-45-46-66-28-20-62-20-40 0-68 20-27 20-40 52-14 31-14 66z"/><path id="r31" d="M153 0v-16l90-40v-507l-175 88v-35l240-150h20v604l80 40v16z"/><path id="r53" d="M264 10q-61 0-104-12-43-11-90-34l-10-164h16l49 106q36 30 70 44 34 13 69 13 59 0 92-31 34-31 34-84 0-44-20-69-19-25-56-45-36-19-86-44-47-24-80-47-33-23-50-53-17-31-17-77 0-34 17-67 16-32 44-58 29-27 64-42 36-16 74-16 47 0 86 11 39 11 79 31l10 160h-16l-46-105q-35-26-61-37-26-12-60-12-44 0-72 30-29 30-29 74 0 51 31 80 31 28 97 60 61 29 100 55 39 26 58 59 19 33 19 84 0 47-20 82-20 36-52 60-31 24-68 36-37 12-72 12z"/><path id="r65" d="M259 10q-97 0-153-59-56-59-56-156 0-75 30-133 29-57 78-90 49-32 105-32 79 0 125 55 45 55 45 158l-5 5h-299q1 46 18 86 17 41 55 66 37 25 100 25 55 0 129-40h3v10q-23 43-68 74-46 31-107 31zM247-416q-48 0-79 34-30 33-37 94h226q-11-68-39-98-27-30-71-30z"/><path id="r6c" d="M44 0v-16l63-32v-588l-60-52v-7l134-55h6v702l63 32v16z"/><path id="r33" d="M244 10q-60 0-108-19-47-19-75-49-28-30-28-63 0-20 7-27 6-7 22-7h64v88q45 32 120 32 63 0 98-38 35-38 35-99 0-68-36-108-36-39-130-39h-59v-44h27q71 0 117-37 47-38 47-105 0-63-27-91-28-29-78-29-20 0-44 6-25 6-50 25v102h-64q-16 0-22-8-7-7-7-26 0-33 27-66 28-34 75-56 47-22 107-22 52 0 92 21 41 21 64 57 24 35 24 80 0 51-39 94-39 42-106 60 90 14 135 63 45 49 45 120 0 49-32 91-32 42-85 68-52 26-116 26z"/><path id="i53" d="M177 10q-58 0-97-12-39-11-80-34l19-164h16l39 117q27 27 54 39 28 12 57 12 71 0 107-42 36-41 36-107 0-41-26-70-27-29-96-67-56-32-82-68-26-36-26-85 0-57 31-102 31-45 79-71 49-26 102-26 44 0 80 11 35 11 69 31l-18 160h-16l-37-116q-17-17-40-30-22-12-57-12-31 0-57 16-27 17-44 47-16 30-16 71 0 36 22 62 23 27 76 57 52 29 82 55 30 25 44 54 13 28 13 65 0 62-33 109-33 47-86 74-54 26-115 26z"/><path id="i26" d="M187 10q-73 0-115-42-42-42-42-104 0-50 18-87 18-37 56-69 39-31 98-65-24-34-39-67-15-33-15-76 0-54 24-92 24-38 66-58 41-20 91-20 42 0 75 16 34 16 54 43 20 27 20 61 0 36-19 63-19 27-60 53-41 26-108 59 8 11 19 25l135 174q50-63 95-157l-87-39 3-16h226l-3 16-87 36q-32 54-64 100-31 47-63 86l7 9q35 45 70 73 36 27 75 27 33 0 59-23h2l9 11q-23 31-54 47-31 16-66 16-54 0-91-28-38-28-70-69-50 47-104 72-54 25-115 25zM221-528q0 32 14 63 14 31 41 70 76-41 102-81 25-40 25-75 0-36-23-57-22-21-60-21-38 0-68 25-31 24-31 76zM115-168q0 52 33 86 32 33 84 33 81 0 154-64l-156-206q-3-4-6-8-3-4-6-8-56 38-80 78-23 40-23 89z"/><path id="i43" d="M320 10q-83 0-141-34-58-35-89-96-30-60-30-139 0-86 31-161 31-74 85-130 53-56 122-88 70-32 147-32 57 0 97 11 39 11 87 37l-26 175h-16l-40-124q-25-26-51-39-25-14-63-14-68 0-120 27-52 27-87 75-36 47-54 108-19 60-19 128 0 118 55 184 54 66 139 66 44 0 81-17 36-17 65-36l80-109h16l-38 159q-31 15-63 26-33 11-73 17-40 6-95 6z"/><path id="i54" d="M133 0l4-16 101-40 99-554h-155l-91 152h-16l35-202h555l-36 202h-16l-38-152h-152l-99 554 88 40-3 16z"/><path id="i46" d="M10 0l3-16 83-40 96-548-69-40 3-16h455l-30 172h-16l-38-122h-218l-43 244h151l62-85h16l-39 219h-16l-31-84h-152l-46 260 89 40-3 16z"/><path id="i6d" d="M43 0l69-389-78-35v-6l142-30h3v105h4q35-39 60-62 25-23 49-33 24-10 56-10 37 0 61 28 24 28 26 77h5q35-39 60-62 25-23 49-33 24-10 56-10 45 0 70 40 25 40 13 108l-35 193q-5 30-1 43 3 13 16 13 17 0 37-19 20-18 38-56l13 6q-29 75-62 108-34 34-69 34-35 0-48-27-13-27-5-72l39-220q6-35-7-63-12-27-52-27-22 0-44 15-21 14-41 34-20 21-36 39l-56 311h-76l55-309q6-35-6-63-13-27-53-27-22 0-44 15-22 15-43 36-20 20-36 39l-53 309z"/><path id="i4f" d="M332 10q-82 0-143-37-61-37-95-103-34-66-34-152 0-75 28-145 28-70 78-125 51-55 119-87 68-32 148-32 83 0 144 37 61 37 95 103 34 66 34 153 0 73-28 142-27 70-77 126-50 55-119 88-68 32-150 32zM364-38q56 0 102-26 46-26 80-72 33-47 52-107 18-60 18-127 0-76-26-133-27-57-74-89-47-33-110-33-74 0-132 45-58 44-90 120-33 75-33 168 0 75 27 132 27 57 75 90 48 32 111 32z"/><path id="i68" d="M106 0h-76l119-678-78-35v-6l164-30h3l-69 394h2q35-39 61-62 27-23 52-33 26-10 58-10 49 0 76 40 26 40 14 108l-35 193q-5 30-1 43 3 13 16 13 17 0 37-19 20-18 38-56l13 6q-29 75-62 108-34 34-69 34-35 0-48-27-13-27-5-72l39-220q5-35-9-63-13-27-57-27-22 0-45 15-23 14-45 34-22 21-38 39z"/><path id="i52" d="M10 0l3-16 83-40 96-548-69-40 3-16h204q105 0 166 40 60 41 60 112 0 67-46 116-45 49-112 68l129 272 57 36-3 16h-130l-132-306h-94l-44 249 65 41-3 16zM325-610h-46l-45 254h84q46 0 78-20 32-19 50-50 17-32 17-68 0-54-37-85-37-31-101-31z"/><path id="i49" d="M10 0l3-16 76-40 97-548-72-40 3-16h238l-3 16-81 40-97 548 77 40-3 16z"/><style>@media (prefers-reduced-motion: no-preference){.breathe{animation:breathe 6s ease-in-out infinite}@keyframes breathe{50%{opacity:.5}}.grow{animation:grow linear both}@keyframes grow{from{transform:scaleX(0)}}.soft{animation:soft 1.2s ease-out both}@keyframes soft{from{opacity:0}}.edge{animation:edge 1.5s linear 0.25s both}@keyframes edge{0%{transform:translateX(24px);opacity:0}3%{opacity:1}19.2%{transform:translateX(185.4px);opacity:1}38.3%{transform:translateX(285.8px);opacity:1}96%{opacity:1}100%{transform:translateX(366px);opacity:0}}}</style></defs><rect width="390" height="326" rx="10" fill="#0b1020"/><g transform="translate(24 38) scale(.013)" fill="#9ca0a9"><use href="#i4c"/><use href="#i61" x="578"/><use href="#i6e" x="1085"/><use href="#i67" x="1605"/><use href="#i75" x="2047"/><use href="#i61" x="2569"/><use href="#i67" x="3066"/><use href="#i65" x="3508"/><use href="#i73" x="3951"/><use href="#i61" x="4542"/><use href="#i63" x="5039"/><use href="#i72" x="5466"/><use href="#i6f" x="5791"/><use href="#i73" x="6300"/><use href="#i73" x="6653"/><use href="#i70" x="7244"/><use href="#i75" x="7742"/><use href="#i62" x="8264"/><use href="#i6c" x="8757"/><use href="#i69" x="9015"/><use href="#i63" x="9303"/><use href="#i72" x="9968"/><use href="#i65" x="10293"/><use href="#i70" x="10736"/><use href="#i6f" x="11234"/><use href="#i73" x="11743"/><use href="#i69" x="12096"/><use href="#i74" x="12384"/><use href="#i6f" x="12698"/><use href="#i72" x="13207"/><use href="#i69" x="13552"/><use href="#i65" x="13840"/><use href="#i73" x="14283"/><use href="#i2c" x="14636"/><use href="#i62" x="15113"/><use href="#i79" x="15596"/><use href="#i62" x="16281"/><use href="#i79" x="16764"/><use href="#i74" x="17211"/><use href="#i65" x="17525"/><use href="#i73" x="17968"/><use href="#i6f" x="18559"/><use href="#i66" x="19058"/><use href="#i63" x="19615"/><use href="#i6f" x="20042"/><use href="#i64" x="20541"/><use href="#i65" x="21056"/></g><g transform="translate(24 56)"><g class="grow" style="animation-delay:.25s;animation-duration:.29s"><rect width="161.4" height="24" rx="2.5" fill="#9fbcff"/><rect y="24" width="161.4" height="16" fill="url(#sg0)" class="breathe"/></g></g><g class="soft" style="animation-delay:.4s"><g transform="translate(24 107) scale(.0155)" fill="#eef1f6"><use href="#r50"/><use href="#r79" x="658"/><use href="#r74" x="1138"/><use href="#r68" x="1492"/><use href="#r6f" x="2074"/><use href="#r6e" x="2614"/></g><g transform="translate(24 124) scale(.013)" fill="#9ca0a9"><use href="#r34"/><use href="#r37" x="500"/><use href="#r2e" x="1000"/><use href="#r37" x="1250"/><use href="#r25" x="1750"/></g></g><g transform="translate(187.4 56)"><g class="grow" style="animation-delay:.54s;animation-duration:.28s"><rect width="98.5" height="24" rx="2.5" fill="#c9d8ff"/><rect y="24" width="98.5" height="16" fill="url(#sg1)" class="breathe" style="animation-delay:-1.1s"/></g></g><g class="soft" style="animation-delay:.69s"><g transform="translate(187.4 107) scale(.0155)" fill="#eef1f6"><use href="#r52"/><use href="#r75" x="661"/><use href="#r73" x="1222"/><use href="#r74" x="1644"/></g><g transform="translate(187.4 124) scale(.013)" fill="#9ca0a9"><use href="#r32"/><use href="#r39" x="500"/><use href="#r2e" x="1000"/><use href="#r31" x="1250"/><use href="#r25" x="1750"/></g></g><g transform="translate(287.8 56)"><g class="grow" style="animation-delay:.83s;animation-duration:.92s"><rect width="78.2" height="24" rx="2.5" fill="#f4f2ec"/><rect y="24" width="78.2" height="16" fill="url(#sg2)" class="breathe" style="animation-delay:-2.2s"/></g></g><g class="soft" style="animation-delay:.98s"><g transform="translate(287.8 107) scale(.0155)" fill="#eef1f6"><use href="#r53"/><use href="#r68" x="531"/><use href="#r65" x="1113"/><use href="#r6c" x="1597"/><use href="#r6c" x="1891"/></g><g transform="translate(287.8 124) scale(.013)" fill="#9ca0a9"><use href="#r32"/><use href="#r33" x="500"/><use href="#r2e" x="1000"/><use href="#r31" x="1250"/><use href="#r25" x="1750"/></g></g><g class="edge mo" opacity="0" stroke-linecap="round"><path d="M0 51V85" stroke="#9fbcff" stroke-width="9" stroke-opacity=".22"/><path d="M0 52V84" stroke="#ffffff" stroke-width="1.6"/></g><path d="M24 164H366" stroke="#3d424f"/><g transform="translate(24 194) scale(.0145)" fill="#eef1f6"><use href="#i53"/><use href="#i65" x="479"/><use href="#i63" x="922"/><use href="#i75" x="1349"/><use href="#i72" x="1871"/><use href="#i69" x="2216"/><use href="#i74" x="2504"/><use href="#i79" x="2818"/><use href="#i26" x="3503"/><use href="#i43" x="4468"/><use href="#i54" x="5127"/><use href="#i46" x="5772"/><use href="#i73" x="6345"/></g><g transform="translate(24 212) scale(.0135)" fill="#9ca0a9"><use href="#r50"/><use href="#r79" x="658"/><use href="#r74" x="1138"/><use href="#r68" x="1492"/><use href="#r6f" x="2074"/><use href="#r6e" x="2614"/></g><g transform="translate(24 234) scale(.0145)" fill="#eef1f6"><use href="#i6d"/><use href="#i61" x="763"/><use href="#i63" x="1260"/><use href="#i4f" x="1687"/><use href="#i53" x="2453"/><use href="#i26" x="3180"/><use href="#i53" x="4145"/><use href="#i68" x="4634"/><use href="#i65" x="5141"/><use href="#i6c" x="5584"/><use href="#i6c" x="5842"/></g><g transform="translate(24 252) scale(.0135)" fill="#9ca0a9"><use href="#r53"/><use href="#r68" x="531"/><use href="#r65" x="1113"/><use href="#r6c" x="1597"/><use href="#r6c" x="1891"/></g><g transform="translate(24 274) scale(.0145)" fill="#eef1f6"><use href="#i52"/><use href="#i75" x="604"/><use href="#i73" x="1126"/><use href="#i74" x="1479"/><use href="#i43" x="2031"/><use href="#i4c" x="2700"/><use href="#i49" x="3298"/><use href="#i74" x="3901"/><use href="#i6f" x="4215"/><use href="#i6f" x="4714"/><use href="#i6c" x="5223"/><use href="#i73" x="5481"/></g><g transform="translate(24 292) scale(.0135)" fill="#9ca0a9"><use href="#r52"/><use href="#r75" x="661"/><use href="#r73" x="1222"/><use href="#r74" x="1644"/></g></svg>